<?xml version="1.0" standalone="no"?>
<!DOCTYPE svg PUBLIC "-//W3C//DTD SVG 20010904//EN"
 "http://www.w3.org/TR/2001/REC-SVG-20010904/DTD/svg10.dtd">
<svg version="1.0" xmlns="http://www.w3.org/2000/svg"
 width="120.000000pt" height="120.000000pt" viewBox="0 0 120.000000 120.000000"
 preserveAspectRatio="xMidYMid meet">
<metadata>
Created by potrace 1.14, written by Peter Selinger 2001-2017
</metadata>
<g transform="translate(0.000000,120.000000) scale(0.100000,-0.100000)"
fill="#000000" stroke="none">
<path d="M508 1195 c-2 -2 -28 -6 -58 -9 -30 -4 -71 -15 -90 -25 -39 -20 -88
-84 -114 -151 -19 -49 -44 -82 -57 -75 -4 3 -17 -8 -29 -25 -17 -24 -18 -29
-5 -23 10 3 6 -5 -10 -21 -14 -14 -23 -31 -20 -36 3 -6 3 -16 -2 -22 -11 -17
-11 -108 0 -108 4 0 7 -8 5 -17 -2 -12 3 -18 14 -17 10 1 17 -1 16 -5 -2 -18
4 -21 25 -10 19 10 20 10 11 -2 -12 -14 -11 -82 1 -129 4 -14 8 -63 10 -110 6
-150 30 -228 88 -292 50 -54 92 -77 170 -93 60 -13 241 -13 292 0 95 24 191
110 210 188 4 15 11 24 16 21 5 -3 5 -13 -1 -23 -20 -39 7 -108 48 -117 15 -3
32 -7 37 -9 21 -5 63 25 72 52 15 44 -3 88 -48 116 -14 10 -28 14 -31 11 -15
-14 -22 54 -23 216 -1 96 1 180 3 187 2 6 11 9 20 6 12 -5 14 -2 9 11 -5 13
-1 19 12 23 13 3 17 12 15 34 -3 21 1 29 12 29 13 0 14 3 5 14 -8 10 -9 16 -1
21 5 3 10 12 9 18 0 9 -2 9 -6 0 -10 -26 -22 -12 -13 13 6 16 7 31 2 38 -5 6
-8 21 -7 33 1 12 -2 20 -7 17 -5 -4 -7 -13 -4 -21 3 -8 1 -11 -4 -8 -6 3 -10
13 -10 21 0 8 -4 14 -9 14 -5 0 -22 28 -39 63 -59 125 -158 174 -387 193 -33
3 -75 7 -92 8 -18 2 -34 2 -35 1z"/>
</g>
</svg>
